# xmcd
#
# Track frame offsets:
#	150
#	20495
#	75462
#	99947
#	119340
#	130862
#	159325
#
# Disc length: 3309 seconds
#
# Revision: 2
# Processed by: cddbd v1.5.2PL0 Copyright (c) Steve Scherf et al.
# Submitted via: EZCDAudioConverter 1.3.4.1
#
DISCID=470ceb07
DTITLE=David Byrne - In Spite Of Wishing And Wanting
DYEAR=1900
DGENRE=
TTITLE0=Horses
TTITLE1=Sleeping Up
TTITLE2=Speech
TTITLE3=Saïd and The Ants
TTITLE4=Fear
TTITLE5=Fuzzy Freaky [DJ Food Mix]
TTITLE6=Danceonvaselinesuperextendedremix
EXTD=
EXTT0=
EXTT1=
EXTT2=
EXTT3=
EXTT4=
EXTT5=
EXTT6=
PLAYORDER=
